# xmcd CD database file
#
# Track frame offsets:
#	150
#	22383
#	41795
#	60079
#	78022
#	99212
#	113616
#	132186
#	153433
#	171507
#	188809
#	205971
#	225122
#	244507
#	264538
#	283057
#	303949
#
# Disc length: 4326 seconds
#
# Revision: 0
# Processed by: cddbd v1.5.1PL0 Copyright (c) Steve Scherf et al.
# Submitted via: CDex 1.51
#
DISCID=d610e411
DTITLE=Los 3 grandes del Merengue Dominicano - Exitos 1
DYEAR=2004
DGENRE=Merengue
TTITLE0=Sergio Vargas - Dime donde
TTITLE1=Eddy Herrera - Culpable
TTITLE2=Juan Luis Guerra - Hay mujer
TTITLE3=Sergio Vargas - Magia
TTITLE4=Eddy Herrera - No voy a llorar
TTITLE5=Juan Luis Guerra - Mi pc
TTITLE6=Sergio Vargas - Las mujeres
TTITLE7=Eddy Herrera - Esta pena
TTITLE8=Juan Luis Guerra - la bilirrubina
TTITLE9=Sergio Vargas - Anoche hablamos de amor
TTITLE10=Eddy Herrera - El idiota
TTITLE11=Juan Luis Guerra - El niagara en bicicleta
TTITLE12=Sergio Vargas - Lastima de tanto amor
TTITLE13=Eddy Herrera - Demasiado niña
TTITLE14=Juan Luis Guerra - Me enamoro de ella
TTITLE15=Sergio Vargas - Mala memoria
TTITLE16=Eddy Herrera - Me sabe a poco
EXTD=YEAR: 2004
EXTT0=
EXTT1=
EXTT2=
EXTT3=
EXTT4=
EXTT5=
EXTT6=
EXTT7=
EXTT8=
EXTT9=
EXTT10=
EXTT11=
EXTT12=
EXTT13=
EXTT14=
EXTT15=
EXTT16=
PLAYORDER=
